<svg width="72" height="72" viewBox="0 0 72 72" fill="none" xmlns="http://www.w3.org/2000/svg">
<path d="M22 11C21.6667 14.3333 20.5 23 14.5 33H15.5C20 24.5 21.5 20 23 11H29C28.6667 14.3333 25 24.5 18 33H19C21.6667 29.8333 27.6 21 30 11H36C35.6667 14.3333 32.4 23.4 22 33V61H20V40H19V61H17V40H16V61H13V40H12V61H9V11H15C14.6667 14.3333 15.0001 23 11.5 33H12.5C15.5 23 15.5 19.5 16 11H22Z" fill="black"/>
<path d="M43 11C45.4 21 51.3333 29.8333 54 33H55C48 24.5 44.3333 14.3333 44 11H50C51.5 20 53 24.5 57.5 33H58.5C52.5 23 51.3333 14.3333 51 11H57C57.5 19.5 57.5 23 60.5 33H61.5C57.9999 23 58.3333 14.3333 58 11H64V61H61V40H60V61H57V40H56V61H54V40H53V61H51V33C40.6 23.4 37.3333 14.3333 37 11H43Z" fill="black"/>
</svg>
