<svg width="72" height="72" viewBox="0 0 72 72" fill="none" xmlns="http://www.w3.org/2000/svg">
<path d="M31.4292 9.25338C34.0517 8.41635 35.7198 11.8194 34.6088 14.3383C33.575 16.6816 33.0005 19.2736 33.0004 21.9995C33.0005 32.4928 41.5071 40.9995 52.0004 40.9995C54.7264 40.9994 57.3184 40.4252 59.6616 39.3911C62.1805 38.2797 65.5838 39.947 64.7465 42.5698C63.5019 46.4676 61.3774 49.9711 58.6098 52.852L68.2368 60.4282L68.3911 60.563C69.1203 61.2671 69.2121 62.423 68.5717 63.2368C67.9313 64.0506 66.786 64.2331 65.9301 63.6899L65.7631 63.5717L4.76314 15.5717C3.89517 14.8887 3.74516 13.6312 4.42818 12.7631C5.11122 11.8951 6.36873 11.7452 7.23677 12.4282L17.1626 20.2387C20.4589 15.087 25.4883 11.1506 31.4292 9.25338Z" fill="black"/>
<path d="M52.354 57.6762C48.5471 59.7923 44.165 60.9994 39.5004 60.9995C24.865 60.9995 13.0005 49.135 13.0004 34.4995C13.0005 32.0629 13.3291 29.7032 13.9448 27.4624L52.354 57.6762Z" fill="black"/>
</svg>
