<svg width="72" height="72" viewBox="0 0 72 72" fill="none" xmlns="http://www.w3.org/2000/svg">
<path fill-rule="evenodd" clip-rule="evenodd" d="M35.9707 10.8662C42.1599 10.8663 47.1953 15.9023 47.1953 22.0928V26H43.2676V22.0928C43.2675 18.0684 39.9938 14.794 35.9707 14.7939C31.9462 14.7939 28.6719 18.0683 28.6719 22.0928V35.6143H43.2676H47.1953H48.5977C51.0118 35.6143 52.9697 37.5715 52.9697 39.9863V60.2637C52.9697 62.6778 51.0118 64.6357 48.5977 64.6357H23.3418C20.9276 64.6357 18.9697 62.6778 18.9697 60.2637V39.9863C18.9697 37.5715 20.9276 35.6143 23.3418 35.6143H24.7441V22.0928C24.7442 15.9023 29.7802 10.8662 35.9707 10.8662ZM35.9697 42.6504C33.7769 42.6505 31.999 44.4289 31.999 46.623C31.9991 47.9856 32.6864 49.1885 33.7334 49.9033V55.3623C33.7337 56.5972 34.7348 57.5975 35.9697 57.5977C37.2055 57.5977 38.2068 56.5973 38.207 55.3623V49.9033C39.2535 49.1872 39.9404 47.9857 39.9404 46.623C39.9404 44.4295 38.1626 42.6504 35.9697 42.6504Z" fill="black"/>
</svg>
