<svg width="72" height="72" viewBox="0 0 72 72" fill="none" xmlns="http://www.w3.org/2000/svg">
<path d="M48.5979 30.6145H47.1951V22.0929C47.1951 15.9023 42.1599 10.8665 35.9706 10.8665C29.7801 10.8665 24.7442 15.9023 24.7442 22.0929V30.6145H23.3414C20.9272 30.6145 18.97 32.5711 18.97 34.9859V55.2641C18.97 57.6783 20.9272 59.6356 23.3414 59.6356H48.5979C51.0121 59.6356 52.97 57.6783 52.97 55.2641V34.9859C52.97 32.5711 51.0121 30.6145 48.5979 30.6145ZM28.6718 22.0929C28.6718 18.0684 31.9461 14.7941 35.9706 14.7941C39.9938 14.7941 43.2675 18.0684 43.2675 22.0929V30.6145H28.6718V22.0929ZM38.2067 44.9038V50.3618C38.2067 51.5971 37.2059 52.598 35.97 52.598C34.7347 52.598 33.7339 51.5971 33.7339 50.3618V44.9038C32.6865 44.1889 31.9992 42.9858 31.9992 41.6229C31.9992 39.4287 33.7771 37.6508 35.97 37.6508C38.1629 37.6508 39.9408 39.4293 39.9408 41.6229C39.9408 42.9858 39.2535 44.1876 38.2067 44.9038Z" fill="black"/>
</svg>
