<svg width="72" height="72" viewBox="0 0 72 72" fill="none" xmlns="http://www.w3.org/2000/svg">
<path fill-rule="evenodd" clip-rule="evenodd" d="M50.0703 9.41895C51.1336 9.41909 51.8457 10.132 51.8457 11.1953V18.2871C51.8457 19.3504 51.1336 20.0624 50.0703 20.0625H45.9883C45.0613 20.0625 44.1468 20.2327 43.2822 20.543C44.4998 24.1625 47.0187 27.1212 50.4268 28.7461L50.957 29.1025C51.8435 29.4586 52.1995 30.5217 51.6689 31.4082C51.3129 32.1202 50.7826 32.4717 50.0752 32.4717H50.0703C49.7145 32.4717 49.5398 32.472 49.3584 32.2979L48.8271 31.9414C44.8495 29.9525 41.7988 26.5127 40.2363 22.417C39.2184 23.3762 38.4308 24.5765 38.0088 25.918C37.9972 25.9651 37.9829 26.0112 37.9668 26.0566C38.7955 28.253 39.2598 30.5404 39.2598 32.8281C39.2598 35.483 40.3206 38.1454 42.2705 39.9209L45.1074 42.583L45.1162 42.584C48.3087 45.9517 49.9036 50.3818 49.373 54.8193L48.3096 62.7988C48.128 63.6805 47.4205 64.3923 46.5342 64.3926H25.249C24.5417 64.3925 23.8298 64.0411 23.6553 63.3291C19.0432 51.625 18.6875 38.5027 23.125 26.4424L23.4678 25.4111C23.4676 25.4007 23.4668 25.3903 23.4668 25.3799C23.4668 23.0739 22.403 21.1231 20.6299 19.7061C20.0995 19.35 19.918 18.8199 19.918 18.2871C19.918 13.3191 23.9991 9.41909 28.7852 9.41895H50.0703ZM31.9834 46.665C33.4005 50.2087 35.5323 53.5828 38.0127 56.5938C38.3687 57.1313 38.9021 57.3057 39.4326 57.3057C39.784 57.3056 40.3216 57.1237 40.4961 56.9492C41.3822 56.2443 41.3819 55.1817 40.8516 54.4697C38.8946 51.9819 37.1264 49.5014 35.8838 46.665H31.9834ZM32.3428 27.1602V31.0596C32.3428 35.1405 33.0542 39.2202 34.4736 43.1201H40.6797L39.9678 42.4082C37.3057 39.9208 35.8858 36.3767 35.8857 32.8281L35.8867 32.833C35.8867 30.8856 35.5352 28.9356 34.8232 27.1602H32.3428ZM26.3066 27.5107C24.5336 32.6554 23.6443 37.7985 23.4697 43.1152H30.7363C29.4985 39.2109 28.7871 35.1361 28.7871 31.0547V27.1553H26.4805L26.3066 27.5107Z" fill="black"/>
</svg>
