<svg width="72" height="72" viewBox="0 0 72 72" fill="none" xmlns="http://www.w3.org/2000/svg">
<path fill-rule="evenodd" clip-rule="evenodd" d="M24.537 33.9648C23.9167 36.9792 23.5713 40.0177 23.4696 43.1152H30.7362C30.1891 41.3896 29.7453 39.6306 29.4198 37.8525L33.9061 41.4258C34.081 41.9938 34.2693 42.559 34.4735 43.1201H36.0341L49.455 53.8066C49.439 54.1438 49.4133 54.4816 49.3729 54.8193L48.3095 62.7988C48.1279 63.6805 47.4204 64.3923 46.5341 64.3926H25.2489C24.5416 64.3925 23.8297 64.0411 23.6552 63.3291C19.6906 53.268 18.8741 42.1597 21.5409 31.5781L24.537 33.9648ZM31.9833 46.665C33.4004 50.2087 35.5322 53.5828 38.0126 56.5938C38.3686 57.1313 38.902 57.3056 39.4325 57.3057C39.7838 57.3056 40.3215 57.1236 40.496 56.9492C41.3821 56.2443 41.3818 55.1817 40.8515 54.4697C38.8945 51.9819 37.1263 49.5014 35.8837 46.665H31.9833Z" fill="black"/>
<path fill-rule="evenodd" clip-rule="evenodd" d="M50.0702 9.41895C51.1334 9.41909 51.8456 10.132 51.8456 11.1953V18.2871C51.8456 19.3504 51.1334 20.0624 50.0702 20.0625H45.9882C45.0613 20.0625 44.1466 20.2327 43.2821 20.543C44.4997 24.1625 47.0187 27.1212 50.4267 28.7461L50.9569 29.1025C51.8434 29.4586 52.1994 30.5217 51.6688 31.4082C51.3128 32.1202 50.7824 32.4717 50.0751 32.4717H50.0702C49.7145 32.4717 49.5397 32.472 49.3583 32.2979L48.827 31.9414C44.8495 29.9525 41.7987 26.5127 40.2362 22.417C39.2184 23.3762 38.4307 24.5765 38.0087 25.918C37.9971 25.9651 37.9828 26.0112 37.9667 26.0566C38.7954 28.253 39.2597 30.5404 39.2597 32.8281C39.2597 33.8967 39.434 34.9658 39.7665 35.9785L63.4921 54.8711L63.6454 55.0068C64.3702 55.7152 64.4554 56.8717 63.8104 57.6816C63.1654 58.4915 62.0195 58.667 61.1669 58.1191L60.9999 58L6.9999 15C6.13587 14.3119 5.99349 13.0535 6.68154 12.1895C7.36964 11.3255 8.62806 11.1831 9.49208 11.8711L22.8573 22.5137C22.3705 21.4353 21.6092 20.4888 20.6298 19.7061C20.0995 19.35 19.9179 18.8199 19.9179 18.2871C19.9179 13.3192 23.9991 9.41915 28.7851 9.41895H50.0702ZM32.3427 30.0664L35.8866 32.8887C35.8865 32.8685 35.8856 32.8483 35.8856 32.8281L35.8866 32.833C35.8866 30.8856 35.5351 28.9356 34.8231 27.1602H32.3427V30.0664ZM28.787 27.2354V27.1553H28.6864L28.787 27.2354Z" fill="black"/>
</svg>
