<svg width="72" height="72" viewBox="0 0 72 72" fill="none" xmlns="http://www.w3.org/2000/svg">
<path d="M56 48.4582V12.9999C56 12.7163 55.937 12.4363 55.8157 12.1799C55.6943 11.9236 55.5176 11.6974 55.2983 11.5176C55.079 11.3379 54.8225 11.209 54.5473 11.1404C54.2721 11.0717 53.9852 11.065 53.7071 11.1207L24.9571 16.8707C24.5228 16.9577 24.1319 17.1924 23.8511 17.535C23.5703 17.8776 23.4168 18.3069 23.4167 18.7499V48.5983C21.9282 47.8598 20.2865 47.4833 18.625 47.4999C13.7884 47.4999 10 50.446 10 54.2082C10 57.9704 13.7884 60.9166 18.625 60.9166C23.4616 60.9166 27.25 57.9704 27.25 54.2082V31.821L52.1667 26.8377L52.1668 42.8481C50.6783 42.1096 49.0365 41.7333 47.375 41.7499C42.5384 41.7499 38.75 44.696 38.75 48.4582C38.75 52.2204 42.5384 55.1666 47.375 55.1666C52.2116 55.1666 56 52.2204 56 48.4582Z" fill="black"/>
</svg>
