<svg width="72" height="72" viewBox="0 0 72 72" fill="none" xmlns="http://www.w3.org/2000/svg">
<path d="M27.2499 35.7351V54.2078C27.2499 57.97 23.4615 60.9168 18.6249 60.9168C13.7884 60.9167 9.99992 57.97 9.99992 54.2078C10.0004 50.4459 13.7887 47.4998 18.6249 47.4998C20.2864 47.4832 21.9285 47.8599 23.4169 48.5984V32.6834L27.2499 35.7351Z" fill="black"/>
<path fill-rule="evenodd" clip-rule="evenodd" d="M53.707 11.1209C53.9848 11.0653 54.2718 11.0719 54.5468 11.1404C54.8217 11.209 55.0786 11.3378 55.2978 11.5174C55.5169 11.697 55.694 11.9234 55.8154 12.1795C55.9367 12.4357 55.9999 12.7163 55.9999 12.9998V48.4578C55.9999 48.4766 55.9982 48.4956 55.998 48.5144L66.4921 56.8709L66.6445 57.0066C67.3696 57.715 67.4555 58.8713 66.8105 59.6814C66.1654 60.4914 65.0196 60.6669 64.1669 60.1189L63.9999 59.9998L9.99992 16.9998C9.13597 16.3117 8.99354 15.0533 9.68157 14.1892C10.3697 13.3255 11.6281 13.1829 12.4921 13.8709L23.4169 22.5701V18.7498C23.4171 18.3069 23.5707 17.8775 23.8515 17.5349C24.1323 17.1926 24.5228 16.9579 24.957 16.8709L53.707 11.1209ZM33.4706 30.576L47.5038 41.7498C49.1212 41.7534 50.717 42.129 52.1669 42.8484V26.8377L33.4706 30.576Z" fill="black"/>
<path d="M50.9267 54.5896C49.8485 54.9593 48.6485 55.1668 47.3749 55.1668C42.5384 55.1667 38.7499 52.22 38.7499 48.4578C38.75 47.4094 39.044 46.4241 39.5732 45.5486L50.9267 54.5896Z" fill="black"/>
</svg>
